<svg xmlns="http://www.w3.org/2000/svg" width="113.62" height="113.62" viewBox="0 0 113.62 113.62">
  <defs>
    <style>
      .cls-1 {
        fill: #b2b2b2;
      }

      .cls-2 {
        fill: #fff;
      }
    </style>
  </defs>
  <g id="Calque_2" data-name="Calque 2">
    <g id="Calque_1-2" data-name="Calque 1">
      <circle class="cls-1" cx="56.81" cy="56.81" r="50.19"/>
      <g id="Calque_2-2" data-name="Calque 2">
        <g id="Calque_3" data-name="Calque 3">
          <path class="cls-2" d="M56.81,0a56.81,56.81,0,1,0,56.81,56.81A56.8,56.8,0,0,0,56.81,0Zm.41,85.9A25.88,25.88,0,0,1,31.35,60h0a3.88,3.88,0,0,1,3.9-3.86l.34,0,1.11.09A3.92,3.92,0,0,1,40.35,60a15.75,15.75,0,0,0,1.2,5.91,17,17,0,0,0,15,10.76A16.79,16.79,0,0,0,73.9,60.46a16.53,16.53,0,0,0-.05-2C73.23,51.1,66.37,44.05,59,43.25a16.19,16.19,0,0,0-2.2-.09v7.17a2.5,2.5,0,0,1-3.94,2L36.86,41a2.5,2.5,0,0,1-.55-3.49,2.38,2.38,0,0,1,.69-.65L53,26.51a2.5,2.5,0,0,1,3.85,2.1v5.56h1.9A25.88,25.88,0,0,1,57.22,85.9Z"/>
        </g>
      </g>
    </g>
  </g>
</svg>
